<?xml version="1.0" encoding="UTF-8"?>
<!DOCTYPE svg PUBLIC "-//W3C//DTD SVG 1.1//EN" "http://www.w3.org/Graphics/SVG/1.1/DTD/svg11.dtd">
<!-- Creator: CorelDRAW 2019 (64-Bit) -->
<svg xmlns="http://www.w3.org/2000/svg" xml:space="preserve" width="356px" height="367px" version="1.1" style="shape-rendering:geometricPrecision; text-rendering:geometricPrecision; image-rendering:optimizeQuality; fill-rule:evenodd; clip-rule:evenodd"
viewBox="0 0 351.58 362.52"
 xmlns:xlink="http://www.w3.org/1999/xlink"
 xmlns:xodm="http://www.corel.com/coreldraw/odm/2003">
 <defs>
  <style type="text/css">
   <![CDATA[
    .str0 {stroke:#858586;stroke-width:1.32;stroke-linecap:round;stroke-linejoin:round;stroke-miterlimit:22.9256}
    .fil1 {fill:none}
    .fil2 {fill:#292929}
    .fil0 {fill:#3B3B3B}
    .fil4 {fill:#B2B2B2}
    .fil3 {fill:white}
   ]]>
  </style>
 </defs>
 <g id="Layer_x0020_1">
  <metadata id="CorelCorpID_0Corel-Layer"/>
  <path class="fil0" d="M319.18 324.44l19.85 0 0 12.97 -19.85 0 0 -12.97zm-316.34 -324.03l-2.03 2.02 -0.81 2.43 0.41 354.42 0.81 1.62 1.62 1.21 345.1 0.41 2.43 -1.22 1.21 -2.02 -0.4 -316.34 -2.43 0 0 -14.59 2.02 0.41 0 -4.86 -26.73 -23.49 -5.27 -0.41 -1.62 1.62 -28.35 0 -2.43 2.43 -195.23 0 0 -1.62 -46.58 -0.4 0 -1.62 -41.72 0z"/>
  <polyline class="fil1 str0" points="44.96,1.62 44.96,117.87 45.77,119.49 46.99,119.9 98.02,119.9 "/>
  <polygon class="fil2" points="11.75,337.41 31.59,337.41 31.59,324.44 11.75,324.44 "/>
  <polygon class="fil3" points="309.05,353.61 309.05,160.4 307.03,157.97 44.55,158.37 42.12,159.99 42.12,353.61 "/>
  <path class="fil4" d="M199.69 19.44l50.63 0 0 95.19 -50.63 0 0 -95.19zm-108.55 -19.44l0 118.28 3.24 2.43 181.86 -0.01 2.84 -3.24 0 -117.46 -187.94 0z"/>
 </g>
</svg>
